<?xml version="1.0" standalone="no"?>
<!DOCTYPE svg PUBLIC "-//W3C//DTD SVG 1.1//EN" "http://www.w3.org/Graphics/SVG/1.1/DTD/svg11.dtd" >
<svg xmlns="http://www.w3.org/2000/svg" xmlns:xlink="http://www.w3.org/1999/xlink" version="1.1">
<metadata></metadata>
<defs>
<font id="8-bit_pusabregular" horiz-adv-x="2389" >
<font-face units-per-em="2048" ascent="2048" descent="0" />
<missing-glyph horiz-adv-x="1024" />
<glyph horiz-adv-x="0" />
<glyph horiz-adv-x="682" />
<glyph unicode=" "  horiz-adv-x="1024" />
<glyph unicode="&#x09;" horiz-adv-x="1024" />
<glyph unicode="&#xa0;" horiz-adv-x="1024" />
<glyph unicode="!" horiz-adv-x="1024" d="M0 0v341h682v-341h-682zM0 682v2048h682v-2048h-682z" />
<glyph unicode="&#x22;" horiz-adv-x="2048" d="M0 1706v1024h682v-1024h-682zM1024 1706v1024h682v-1024h-682z" />
<glyph unicode="#" d="M0 682v342h341v341h-341v341h341v683h683v-683h341v683h341v-683h342v-341h-342v-341h342v-342h-342v-682h-341v682h-341v-682h-683v682h-341zM1024 1024h341v341h-341v-341z" />
<glyph unicode="$" d="M0 341v341h682v683h-682v1024h682v341h683v-341h683v-341h-683v-342h683v-1365h-683v-341h-683v341h-682zM341 1706h341v342h-341v-342zM1365 682h341v683h-341v-683z" />
<glyph unicode="%" horiz-adv-x="3072" d="M0 0v341h341v-341h-341zM0 1706v683h341v341h683v-341h-342v-683h342v-341h-683v341h-341zM341 341v341h341v-341h-341zM682 682v342h342v-342h-342zM1024 1024v341h341v-341h-341zM1024 1706v683h341v-683h-341zM1365 341v683h341v341h683v-341h-341v-683h341v-341h-683 v341h-341zM1365 1365v341h341v-341h-341zM1706 1706v342h342v-342h-342zM2048 2048v341h341v-341h-341zM2389 341v683h341v-683h-341zM2389 2389v341h341v-341h-341z" />
<glyph unicode="&#x26;" d="M0 341v1024h341v341h-341v683h341v341h1024v-341h-683v-683h683v-341h-341v-341h-342v-683h683v-341h-1024v341h-341zM1024 682v342h341v-342h-341zM1365 341v341h341v-341h-341zM1365 1706v683h341v-683h-341zM1706 0v341h342v-341h-342zM1706 682v342h342v-342h-342z " />
<glyph unicode="'" horiz-adv-x="1024" d="M0 1706v1024h682v-1024h-682z" />
<glyph unicode="(" horiz-adv-x="1365" d="M0 0v2389h341v341h683v-341h-342v-2389h342v-341h-683v341h-341z" />
<glyph unicode=")" horiz-adv-x="1365" d="M0 0h341v2389h-341v341h682v-341h342v-2389h-342v-341h-682v341z" />
<glyph unicode="*" horiz-adv-x="2048" d="M0 1706v342h341v341h-341v341h682v342h342v-342h682v-341h-341v-341h341v-342h-682v342h-342v-342h-682z" />
<glyph unicode="+" d="M0 1024v682h682v683h683v-683h683v-682h-683v-683h-683v683h-682z" />
<glyph unicode="," horiz-adv-x="1024" d="M0 0v682h682v-1023h-341v341h-341zM0 -341h341v-341h-341v341z" />
<glyph unicode="-" d="M0 1024v682h2048v-682h-2048z" />
<glyph unicode="." horiz-adv-x="1024" d="M0 0v682h682v-682h-682z" />
<glyph unicode="/" horiz-adv-x="2048" d="M0 0v682h341v683h341v683h342v682h682v-682h-341v-683h-341v-683h-342v-682h-682z" />
<glyph unicode="0" horiz-adv-x="2048" d="M0 0v2389h1706v-2389h-1706zM682 341h683v1707h-683v-1707z" />
<glyph unicode="1" horiz-adv-x="1365" d="M0 1706v342h341v341h683v-2389h-683v1706h-341z" />
<glyph unicode="2" horiz-adv-x="2048" d="M0 0v1365h1024v683h-1024v341h1706v-1365h-1024v-683h1024v-341h-1706z" />
<glyph unicode="3" horiz-adv-x="2048" d="M0 0v341h1024v683h-683v341h683v683h-1024v341h1706v-2389h-1706z" />
<glyph unicode="4" horiz-adv-x="2048" d="M0 1024v1365h682v-1024h683v1024h341v-2389h-682v1024h-1024z" />
<glyph unicode="5" horiz-adv-x="2048" d="M0 0v341h1024v683h-1024v1365h1706v-341h-1024v-683h1024v-1365h-1706z" />
<glyph unicode="6" horiz-adv-x="2048" d="M0 0v2389h1706v-341h-1024v-683h1024v-1365h-1706zM682 341h683v683h-683v-683z" />
<glyph unicode="7" horiz-adv-x="2048" d="M0 2048v341h1706v-2389h-682v2048h-1024z" />
<glyph unicode="8" horiz-adv-x="2048" d="M0 0v2389h1706v-2389h-1706zM682 341h683v683h-683v-683zM682 1365h683v683h-683v-683z" />
<glyph unicode="9" horiz-adv-x="2048" d="M0 0v341h1024v683h-1024v1365h1706v-2389h-1706zM341 1365h683v683h-683v-683z" />
<glyph unicode=":" horiz-adv-x="1024" d="M0 0v682h682v-682h-682zM0 1365v683h682v-683h-682z" />
<glyph unicode=";" horiz-adv-x="1024" d="M-341 0h341v682h682v-682h-341v-341h-682v341zM0 1365v683h682v-683h-682z" />
<glyph unicode="&#x3c;" horiz-adv-x="2048" d="M0 1024v341h341v341h341v342h342v341h682v-341h-341v-342h-341v-341h-342v-341h342v-342h341v-341h341v-341h-682v341h-342v341h-341v342h-341z" />
<glyph unicode="=" d="M0 341v683h2048v-683h-2048zM0 1365v683h2048v-683h-2048z" />
<glyph unicode="&#x3e;" horiz-adv-x="2048" d="M0 0v341h341v341h341v342h342v341h-342v341h-341v342h-341v341h682v-341h342v-342h341v-341h341v-341h-341v-342h-341v-341h-342v-341h-682z" />
<glyph unicode="?" d="M0 2048v341h341v-341h-341zM341 2389v341h1365v-341h342v-683h-342v-341h-341v-683h-683v683h342v341h341v683h-1024zM682 0v341h683v-341h-683z" />
<glyph unicode="@" horiz-adv-x="3413" d="M0 341v2048h341v-2048h-341zM341 0v341h341v1707h342v341h-683v341h2389v-341h-682v-341h-683v-683h683v683h341v-1707h341v-341h-2389zM1365 341h683v683h-683v-683zM2730 341v2048h342v-2048h-342z" />
<glyph unicode="A" d="M0 0v2048h341v341h1365v-341h-1024v-683h1024v683h342v-2048h-342v1024h-1024v-1024h-682z" />
<glyph unicode="B" d="M0 0v2389h1706v-341h-1024v-683h1024v-341h-1024v-683h1024v-341h-1706zM1706 341v683h342v-683h-342zM1706 1365v683h342v-683h-342z" />
<glyph unicode="C" d="M0 341v1707h341v341h1707v-341h-1366v-1707h1366v-341h-1707v341h-341z" />
<glyph unicode="D" d="M0 0v2389h1706v-341h-1024v-1707h1024v-341h-1706zM1706 341v1707h342v-1707h-342z" />
<glyph unicode="E" d="M0 0v2389h2048v-341h-1366v-683h683v-341h-683v-683h1366v-341h-2048z" />
<glyph unicode="F" d="M0 0v2389h2048v-341h-1366v-683h683v-341h-683v-1024h-682z" />
<glyph unicode="G" d="M0 341v1707h341v341h1707v-341h-1366v-1707h1024v341h-682v342h1024v-1024h-1707v341h-341z" />
<glyph unicode="H" d="M0 0v2389h682v-1024h1024v1024h342v-2389h-342v1024h-1024v-1024h-682z" />
<glyph unicode="I" d="M0 0v341h682v1707h-682v341h2048v-341h-683v-1707h683v-341h-2048z" />
<glyph unicode="J" d="M0 0v682h341v-341h1024v2048h683v-2389h-2048z" />
<glyph unicode="K" d="M0 0v2389h682v-1024h342v-341h-342v-1024h-682zM1024 682v342h341v-342h-341zM1024 1365v341h341v-341h-341zM1365 341v341h341v-341h-341zM1365 1706v342h341v-342h-341zM1706 0v341h342v-341h-342zM1706 2048v341h342v-341h-342z" />
<glyph unicode="L" d="M0 0v2389h682v-2048h1366v-341h-2048z" />
<glyph unicode="M" d="M0 0v2389h682v-341h342v-342h-342v-1706h-682zM1024 1365v341h341v-341h-341zM1365 1706v342h341v341h342v-2389h-342v1706h-341z" />
<glyph unicode="N" d="M0 0v2389h682v-341h342v-683h-342v-1365h-682zM1024 682v683h341v-683h-341zM1365 0v682h341v1707h342v-2389h-683z" />
<glyph unicode="O" d="M0 341v1707h341v341h1365v-341h-1024v-1707h1024v-341h-1365v341h-341zM1706 341v1707h342v-1707h-342z" />
<glyph unicode="P" d="M0 0v2389h1706v-341h-1024v-1024h1024v-342h-1024v-682h-682zM1706 1024v1024h342v-1024h-342z" />
<glyph unicode="Q" d="M0 341v1707h341v341h1365v-341h-1024v-1707h683v-341h-1024v341h-341zM1365 341v341h341v-341h-341zM1706 0v341h342v-341h-342zM1706 682v1366h342v-1366h-342z" />
<glyph unicode="R" d="M0 0v2389h1706v-341h-1024v-1024h1024v-342h-1024v-682h-682zM1706 0v682h342v-682h-342zM1706 1024v1024h342v-1024h-342z" />
<glyph unicode="S" d="M0 0v341h1365v683h-1024v341h-341v683h341v341h1707v-341h-1366v-683h1024v-341h342v-683h-342v-341h-1706z" />
<glyph unicode="T" d="M0 2048v341h2048v-341h-683v-2048h-683v2048h-682z" />
<glyph unicode="U" d="M0 341v2048h682v-2048h1024v-341h-1365v341h-341zM1706 341v2048h342v-2048h-342z" />
<glyph unicode="V" d="M0 682v1707h682v-1707h342v-341h341v-341h-683v341h-341v341h-341zM1365 341v341h341v-341h-341zM1706 682v1707h342v-1707h-342z" />
<glyph unicode="W" d="M0 341v2048h682v-2048h342v-341h-683v341h-341zM1024 341v683h341v-683h-341zM1365 0v341h341v-341h-341zM1706 341v2048h342v-2048h-342z" />
<glyph unicode="X" d="M0 0v682h341v342h341v341h-341v341h-341v683h682v-683h342v-341h341v-341h-341v-342h-342v-682h-682zM1365 682v342h341v-342h-341zM1365 1365v341h341v-341h-341zM1706 0v682h342v-682h-342zM1706 1706v683h342v-683h-342z" />
<glyph unicode="Y" d="M0 1365v1024h682v-1024h342v-341h341v-1024h-683v1024h-341v341h-341zM1365 1024v341h341v-341h-341zM1706 1365v1024h342v-1024h-342z" />
<glyph unicode="Z" d="M0 0v682h341v342h341v341h342v341h341v342h-1365v341h2048v-683h-342v-341h-341v-341h-341v-342h-342v-341h1366v-341h-2048z" />
<glyph unicode="[" horiz-adv-x="1365" d="M0 -341v3071h1024v-341h-342v-2389h342v-341h-1024z" />
<glyph unicode="\" horiz-adv-x="2048" d="M0 2048v682h682v-682h342v-683h341v-683h341v-682h-682v682h-342v683h-341v683h-341z" />
<glyph unicode="]" horiz-adv-x="1365" d="M0 0h341v2389h-341v341h1024v-3071h-1024v341z" />
<glyph unicode="^" d="M0 1706v342h341v341h341v341h683v-341h341v-341h342v-342h-683v342h-683v-342h-682z" />
<glyph unicode="_" d="M0 0v682h2048v-682h-2048z" />
<glyph unicode="`" horiz-adv-x="1706" d="M0 2389v341h682v-341h342v-341h341v-342h-683v342h-341v341h-341z" />
<glyph unicode="a" horiz-adv-x="2048" d="M0 0v1706h341v342h1024v-342h-683v-682h683v682h341v-1706h-341v682h-683v-682h-682z" />
<glyph unicode="b" horiz-adv-x="2048" d="M0 0v2048h1365v-342h-683v-341h683v-341h-683v-683h683v-341h-1365zM1365 341v683h341v-683h-341zM1365 1365v341h341v-341h-341z" />
<glyph unicode="c" horiz-adv-x="2048" d="M0 341v1365h341v342h1365v-342h-1024v-1365h1024v-341h-1365v341h-341z" />
<glyph unicode="d" horiz-adv-x="2048" d="M0 0v2048h1365v-342h-683v-1365h683v-341h-1365zM1365 341v1365h341v-1365h-341z" />
<glyph unicode="e" horiz-adv-x="2048" d="M0 0v2048h1706v-342h-1024v-341h683v-341h-683v-683h1024v-341h-1706z" />
<glyph unicode="f" horiz-adv-x="2048" d="M0 0v2048h1706v-342h-1024v-682h683v-342h-683v-682h-682z" />
<glyph unicode="g" horiz-adv-x="2048" d="M0 341v1365h341v342h1024v-342h-683v-1365h683v-341h-1024v341h-341zM1024 682v342h682v-683h-341v341h-341zM1365 1365v341h341v-341h-341z" />
<glyph unicode="h" horiz-adv-x="2048" d="M0 0v2048h682v-683h683v683h341v-2048h-341v1024h-683v-1024h-682z" />
<glyph unicode="i" horiz-adv-x="1706" d="M0 0v341h341v1365h-341v342h1365v-342h-341v-1365h341v-341h-1365z" />
<glyph unicode="j" horiz-adv-x="2048" d="M0 0v682h341v-341h683v1707h682v-2048h-1706z" />
<glyph unicode="k" horiz-adv-x="2048" d="M0 0v2048h682v-683h342v-683h-342v-682h-682zM1024 341v341h341v-341h-341zM1024 1365v341h341v-341h-341zM1365 0v341h341v-341h-341zM1365 1706v342h341v-342h-341z" />
<glyph unicode="l" horiz-adv-x="1706" d="M0 0v2048h682v-1707h683v-341h-1365z" />
<glyph unicode="m" d="M0 0v2048h1024v-342h-342v-1706h-682zM1024 1365v341h341v-341h-341zM1365 1706v342h683v-2048h-342v1706h-341z" />
<glyph unicode="n" horiz-adv-x="2048" d="M0 0v2048h1365v-342h-683v-1706h-682zM1365 0v1706h341v-1706h-341z" />
<glyph unicode="o" horiz-adv-x="2048" d="M0 341v1365h341v342h1024v-342h-683v-1365h683v-341h-1024v341h-341zM1365 341v1365h341v-1365h-341z" />
<glyph unicode="p" horiz-adv-x="2048" d="M0 0v2048h1365v-342h-683v-682h683v-342h-683v-682h-682zM1365 1024v682h341v-682h-341z" />
<glyph unicode="q" horiz-adv-x="2048" d="M0 341v1365h341v342h1024v-342h-683v-1365h342v341h341v1024h341v-1194h-170v-171h170v-341h-341v170h-171v-170h-853v341h-341z" />
<glyph unicode="r" horiz-adv-x="2048" d="M0 0v2048h1365v-342h-683v-682h683v-342h-683v-682h-682zM1365 0v682h341v-682h-341zM1365 1024v682h341v-682h-341z" />
<glyph unicode="s" horiz-adv-x="2048" d="M0 0v341h1024v683h-683v341h-341v341h341v342h1365v-342h-1024v-341h683v-341h341v-683h-341v-341h-1365z" />
<glyph unicode="t" horiz-adv-x="1706" d="M0 1706v342h1365v-342h-341v-1706h-683v1706h-341z" />
<glyph unicode="u" horiz-adv-x="2048" d="M0 341v1707h682v-1707h683v-341h-1024v341h-341zM1365 341v1707h341v-1707h-341z" />
<glyph unicode="v" horiz-adv-x="2048" d="M0 682v1366h682v-1366h683v-341h-341v-341h-342v341h-341v341h-341zM1365 682v1366h341v-1366h-341z" />
<glyph unicode="w" d="M0 341v1707h682v-1707h342v-341h-683v341h-341zM1024 341v341h341v-341h-341zM1365 0v341h341v-341h-341zM1706 341v1707h342v-1707h-342z" />
<glyph unicode="x" d="M0 0v341h341v341h341v683h-341v341h-341v342h682v-342h342v-341h341v-683h-341v-341h-342v-341h-682zM1365 341v341h341v-341h-341zM1365 1365v341h341v-341h-341zM1706 0v341h342v-341h-342zM1706 1706v342h342v-342h-342z" />
<glyph unicode="y" horiz-adv-x="1706" d="M0 1024v1024h682v-1024h342v-1024h-683v1024h-341zM1024 1024v1024h341v-1024h-341z" />
<glyph unicode="z" d="M0 0v341h341v341h341v342h342v341h341v341h-1365v342h2048v-683h-342v-341h-341v-342h-341v-341h1024v-341h-2048z" />
<glyph unicode="{" horiz-adv-x="1706" d="M0 1024v341h341v1024h341v341h683v-341h-341v-2389h341v-341h-683v341h-341v1024h-341z" />
<glyph unicode="|" horiz-adv-x="1024" d="M0 0v2730h682v-2730h-682z" />
<glyph unicode="}" horiz-adv-x="1706" d="M0 0h341v2389h-341v341h682v-341h342v-1024h341v-341h-341v-1024h-342v-341h-682v341z" />
<glyph unicode="~" d="M0 682v683h341v341h683v-341h682v341h342v-682h-342v-342h-682v342h-683v-342h-341z" />
<glyph unicode="&#xad;" d="M0 1024v682h2048v-682h-2048z" />
<glyph unicode="&#x2000;" horiz-adv-x="1536" />
<glyph unicode="&#x2001;" horiz-adv-x="3072" />
<glyph unicode="&#x2002;" horiz-adv-x="1536" />
<glyph unicode="&#x2003;" horiz-adv-x="3072" />
<glyph unicode="&#x2004;" horiz-adv-x="1024" />
<glyph unicode="&#x2005;" horiz-adv-x="768" />
<glyph unicode="&#x2006;" horiz-adv-x="512" />
<glyph unicode="&#x2007;" horiz-adv-x="512" />
<glyph unicode="&#x2008;" horiz-adv-x="384" />
<glyph unicode="&#x2009;" horiz-adv-x="614" />
<glyph unicode="&#x200a;" horiz-adv-x="170" />
<glyph unicode="&#x2010;" d="M0 1024v682h2048v-682h-2048z" />
<glyph unicode="&#x2011;" d="M0 1024v682h2048v-682h-2048z" />
<glyph unicode="&#x2012;" d="M0 1024v682h2048v-682h-2048z" />
<glyph unicode="&#x2013;" horiz-adv-x="1365" d="M0 1024v682h1024v-682h-1024z" />
<glyph unicode="&#x2014;" d="M0 1024v682h2048v-682h-2048z" />
<glyph unicode="&#x2018;" horiz-adv-x="1365" d="M0 1706v683h341v341h683v-341h-342v-683h-682z" />
<glyph unicode="&#x2019;" horiz-adv-x="1365" d="M0 1706v342h341v682h683v-682h-342v-342h-682z" />
<glyph unicode="&#x201c;" d="M0 1706v683h341v341h683v-341h-342v-683h-682zM1024 1706v683h341v341h683v-341h-342v-683h-682z" />
<glyph unicode="&#x201d;" d="M0 1706v342h341v682h683v-682h-342v-342h-682zM1024 1706v342h341v682h683v-682h-342v-342h-682z" />
<glyph unicode="&#x202f;" horiz-adv-x="614" />
<glyph unicode="&#x205f;" horiz-adv-x="768" />
<glyph unicode="&#x25fc;" horiz-adv-x="2047" d="M0 0v2048h2048v-2048h-2048z" />
</font>
</defs>
</svg>
