<?xml version="1.0" standalone="no"?>
<!DOCTYPE svg PUBLIC "-//W3C//DTD SVG 1.1//EN" "http://www.w3.org/Graphics/SVG/1.1/DTD/svg11.dtd" >
<svg xmlns="http://www.w3.org/2000/svg" xmlns:xlink="http://www.w3.org/1999/xlink" version="1.1">
<metadata></metadata>
<defs>
<font id="ibm_logoregular" horiz-adv-x="1664" >
<font-face units-per-em="2048" ascent="1638" descent="-410" />
<missing-glyph horiz-adv-x="896" />
<glyph horiz-adv-x="0" />
<glyph horiz-adv-x="682" />
<glyph unicode=" "  horiz-adv-x="896" />
<glyph unicode="&#x09;" horiz-adv-x="896" />
<glyph unicode="&#xa0;" horiz-adv-x="896" />
<glyph unicode="A" horiz-adv-x="2048" d="M0 0v128h640v-128h-640zM128 256v128h384v-128h-384zM128 512v128h1408v-128h-1408zM256 768v128h1152v-128h-1152zM256 1024v128h384v-128h-384zM256 1792v128h1152v-128h-1152zM384 1280v128h384v-128h-384zM384 1536v128h896v-128h-896zM896 1280v128h384v-128h-384z M1024 0v128h640v-128h-640zM1024 1024v128h384v-128h-384zM1152 256v128h384v-128h-384z" />
<glyph unicode="B" d="M0 0v128h1152v-128h-1152zM0 256v128h1280v-128h-1280zM0 1536v128h1280v-128h-1280zM0 1792v128h1152v-128h-1152zM128 512v128h384v-128h-384zM128 768v128h1024v-128h-1024zM128 1024v128h1024v-128h-1024zM128 1280v128h384v-128h-384zM896 512v128h384v-128h-384z M896 1280v128h384v-128h-384z" />
<glyph unicode="C" d="M0 256v128h1280v-128h-1280zM0 512v128h384v-128h-384zM0 768v128h384v-128h-384zM0 1024v128h384v-128h-384zM0 1280v128h384v-128h-384zM0 1536v128h1280v-128h-1280zM128 0v128h1152v-128h-1152zM128 1792v128h1152v-128h-1152z" />
<glyph unicode="D" d="M0 0v128h1152v-128h-1152zM0 1792v128h1152v-128h-1152zM128 256v128h1152v-128h-1152zM128 512v128h384v-128h-384zM128 768v128h384v-128h-384zM128 1024v128h384v-128h-384zM128 1280v128h384v-128h-384zM128 1536v128h1152v-128h-1152zM896 512v128h384v-128h-384z M896 768v128h384v-128h-384zM896 1024v128h384v-128h-384zM896 1280v128h384v-128h-384z" />
<glyph unicode="E" d="M0 0v128h1280v-128h-1280zM0 256v128h1280v-128h-1280zM0 1536v128h1280v-128h-1280zM0 1792v128h1280v-128h-1280zM128 512v128h384v-128h-384zM128 768v128h1024v-128h-1024zM128 1024v128h1024v-128h-1024zM128 1280v128h384v-128h-384z" />
<glyph unicode="F" d="M0 0v128h640v-128h-640zM0 256v128h640v-128h-640zM0 1536v128h1280v-128h-1280zM0 1792v128h1280v-128h-1280zM128 512v128h384v-128h-384zM128 768v128h1024v-128h-1024zM128 1024v128h1024v-128h-1024zM128 1280v128h384v-128h-384z" />
<glyph unicode="G" d="M0 256v128h1280v-128h-1280zM0 512v128h384v-128h-384zM0 768v128h384v-128h-384zM0 1024v128h384v-128h-384zM0 1280v128h384v-128h-384zM0 1536v128h1280v-128h-1280zM128 0v128h1024v-128h-1024zM128 1792v128h1152v-128h-1152zM768 768v128h512v-128h-512zM896 512 v128h384v-128h-384z" />
<glyph unicode="H" horiz-adv-x="2048" d="M0 0v128h640v-128h-640zM0 256v128h640v-128h-640zM0 1536v128h640v-128h-640zM0 1792v128h640v-128h-640zM128 512v128h384v-128h-384zM128 768v128h1408v-128h-1408zM128 1024v128h1408v-128h-1408zM128 1280v128h384v-128h-384zM1024 0v128h640v-128h-640zM1024 256 v128h640v-128h-640zM1024 1536v128h640v-128h-640zM1024 1792v128h640v-128h-640zM1152 512v128h384v-128h-384zM1152 1280v128h384v-128h-384z" />
<glyph unicode="I" horiz-adv-x="1024" d="M0 0v128h640v-128h-640zM0 256v128h640v-128h-640zM0 1536v128h640v-128h-640zM0 1792v128h640v-128h-640zM128 512v128h384v-128h-384zM128 768v128h384v-128h-384zM128 1024v128h384v-128h-384zM128 1280v128h384v-128h-384z" />
<glyph unicode="J" d="M0 256v128h1152v-128h-1152zM0 512v128h384v-128h-384zM0 768v128h384v-128h-384zM128 0v128h896v-128h-896zM640 1792v128h640v-128h-640zM768 512v128h384v-128h-384zM768 768v128h384v-128h-384zM768 1024v128h384v-128h-384zM768 1280v128h384v-128h-384zM768 1536 v128h384v-128h-384z" />
<glyph unicode="K" horiz-adv-x="2048" d="M0 0v128h640v-128h-640zM0 256v128h640v-128h-640zM0 1536v128h640v-128h-640zM0 1792v128h640v-128h-640zM128 512v128h384v-128h-384zM128 768v128h1152v-128h-1152zM128 1024v128h1152v-128h-1152zM128 1280v128h384v-128h-384zM1024 0v128h640v-128h-640zM1024 512 v128h384v-128h-384zM1024 1280v128h384v-128h-384zM1024 1792v128h640v-128h-640zM1152 256v128h384v-128h-384zM1152 1536v128h384v-128h-384z" />
<glyph unicode="L" d="M0 0v128h1280v-128h-1280zM0 256v128h1280v-128h-1280zM0 1536v128h640v-128h-640zM0 1792v128h640v-128h-640zM128 512v128h384v-128h-384zM128 768v128h384v-128h-384zM128 1024v128h384v-128h-384zM128 1280v128h384v-128h-384z" />
<glyph unicode="M" horiz-adv-x="2560" d="M0 0v128h640v-128h-640zM0 256v128h640v-128h-640zM0 1536v128h768v-128h-768zM0 1792v128h640v-128h-640zM128 512v128h384v-128h-384zM128 768v128h384v-128h-384zM128 1024v128h896v-128h-896zM128 1280v128h768v-128h-768zM640 768v128h896v-128h-896zM768 512v128 h640v-128h-640zM896 256v128h384v-128h-384zM1024 0v128h128v-128h-128zM1152 1024v128h896v-128h-896zM1280 1280v128h768v-128h-768zM1408 1536v128h768v-128h-768zM1536 0v128h640v-128h-640zM1536 1792v128h640v-128h-640zM1664 256v128h384v-128h-384zM1664 512v128 h384v-128h-384zM1664 768v128h384v-128h-384z" />
<glyph unicode="N" horiz-adv-x="2048" d="M0 0v128h640v-128h-640zM0 256v128h640v-128h-640zM0 1536v128h768v-128h-768zM0 1792v128h640v-128h-640zM128 512v128h384v-128h-384zM128 768v128h384v-128h-384zM128 1024v128h896v-128h-896zM128 1280v128h768v-128h-768zM640 768v128h896v-128h-896zM768 512v128 h768v-128h-768zM896 256v128h768v-128h-768zM1024 0v128h640v-128h-640zM1024 1536v128h640v-128h-640zM1024 1792v128h640v-128h-640zM1152 1024v128h384v-128h-384zM1152 1280v128h384v-128h-384z" />
<glyph unicode="O" d="M0 256v128h1280v-128h-1280zM0 512v128h384v-128h-384zM0 768v128h384v-128h-384zM0 1024v128h384v-128h-384zM0 1280v128h384v-128h-384zM0 1536v128h1280v-128h-1280zM128 0v128h1024v-128h-1024zM128 1792v128h1024v-128h-1024zM896 512v128h384v-128h-384zM896 768 v128h384v-128h-384zM896 1024v128h384v-128h-384zM896 1280v128h384v-128h-384z" />
<glyph unicode="P" d="M0 0v128h640v-128h-640zM0 256v128h640v-128h-640zM0 1536v128h1280v-128h-1280zM0 1792v128h1152v-128h-1152zM128 512v128h384v-128h-384zM128 768v128h1024v-128h-1024zM128 1024v128h1152v-128h-1152zM128 1280v128h384v-128h-384zM896 1280v128h384v-128h-384z" />
<glyph unicode="Q" d="M0 256v128h1280v-128h-1280zM0 512v128h384v-128h-384zM0 768v128h384v-128h-384zM0 1024v128h384v-128h-384zM0 1280v128h384v-128h-384zM0 1536v128h1280v-128h-1280zM128 0v128h1024v-128h-1024zM128 1792v128h1024v-128h-1024zM512 -128h384v-128h-384v128zM640 -384 h384v-128h-384v128zM896 512v128h384v-128h-384zM896 768v128h384v-128h-384zM896 1024v128h384v-128h-384zM896 1280v128h384v-128h-384z" />
<glyph unicode="R" horiz-adv-x="2048" d="M0 0v128h640v-128h-640zM0 256v128h640v-128h-640zM0 1536v128h1536v-128h-1536zM0 1792v128h1408v-128h-1408zM128 512v128h384v-128h-384zM128 768v128h1280v-128h-1280zM128 1024v128h1280v-128h-1280zM128 1280v128h384v-128h-384zM1024 0v128h640v-128h-640z M1024 256v128h640v-128h-640zM1152 512v128h384v-128h-384zM1152 1280v128h384v-128h-384z" />
<glyph unicode="S" d="M0 0v128h1152v-128h-1152zM0 256v128h1280v-128h-1280zM0 1280v128h384v-128h-384zM0 1536v128h1280v-128h-1280zM128 1792v128h1152v-128h-1152zM256 1024v128h512v-128h-512zM512 768v128h512v-128h-512zM896 512v128h384v-128h-384z" />
<glyph unicode="T" horiz-adv-x="1792" d="M0 1536v128h1408v-128h-1408zM0 1792v128h1408v-128h-1408zM384 0v128h640v-128h-640zM384 256v128h640v-128h-640zM512 512v128h384v-128h-384zM512 768v128h384v-128h-384zM512 1024v128h384v-128h-384zM512 1280v128h384v-128h-384z" />
<glyph unicode="U" horiz-adv-x="2048" d="M0 1536v128h640v-128h-640zM0 1792v128h640v-128h-640zM128 256v128h1408v-128h-1408zM128 512v128h384v-128h-384zM128 768v128h384v-128h-384zM128 1024v128h384v-128h-384zM128 1280v128h384v-128h-384zM256 0v128h1152v-128h-1152zM1024 1536v128h640v-128h-640z M1024 1792v128h640v-128h-640zM1152 512v128h384v-128h-384zM1152 768v128h384v-128h-384zM1152 1024v128h384v-128h-384zM1152 1280v128h384v-128h-384z" />
<glyph unicode="V" horiz-adv-x="2048" d="M0 1792v128h640v-128h-640zM128 1280v128h384v-128h-384zM128 1536v128h384v-128h-384zM256 768v128h384v-128h-384zM256 1024v128h384v-128h-384zM384 256v128h896v-128h-896zM384 512v128h384v-128h-384zM512 0v128h640v-128h-640zM896 512v128h384v-128h-384z M1024 768v128h384v-128h-384zM1024 1024v128h384v-128h-384zM1024 1792v128h640v-128h-640zM1152 1280v128h384v-128h-384zM1152 1536v128h384v-128h-384z" />
<glyph unicode="W" horiz-adv-x="2816" d="M0 1792v128h640v-128h-640zM128 1280v128h384v-128h-384zM128 1536v128h384v-128h-384zM256 768v128h384v-128h-384zM256 1024v128h384v-128h-384zM384 256v128h1664v-128h-1664zM384 512v128h384v-128h-384zM512 0v128h640v-128h-640zM896 512v128h640v-128h-640z M1024 768v128h384v-128h-384zM1024 1024v128h384v-128h-384zM1280 0v128h640v-128h-640zM1664 512v128h384v-128h-384zM1792 768v128h384v-128h-384zM1792 1024v128h384v-128h-384zM1792 1792v128h640v-128h-640zM1920 1280v128h384v-128h-384zM1920 1536v128h384v-128h-384 z" />
<glyph unicode="X" horiz-adv-x="2048" d="M0 0v128h640v-128h-640zM0 256v128h640v-128h-640zM0 1536v128h640v-128h-640zM0 1792v128h640v-128h-640zM128 512v128h384v-128h-384zM128 1280v128h384v-128h-384zM256 768v128h1152v-128h-1152zM256 1024v128h1152v-128h-1152zM1024 0v128h640v-128h-640zM1024 256 v128h640v-128h-640zM1024 1536v128h640v-128h-640zM1024 1792v128h640v-128h-640zM1152 512v128h384v-128h-384zM1152 1280v128h384v-128h-384z" />
<glyph unicode="Y" horiz-adv-x="2048" d="M0 1536v128h640v-128h-640zM0 1792v128h640v-128h-640zM256 1280v128h384v-128h-384zM384 1024v128h896v-128h-896zM512 0v128h640v-128h-640zM512 256v128h640v-128h-640zM512 768v128h640v-128h-640zM640 512v128h384v-128h-384zM1024 1280v128h384v-128h-384z M1024 1536v128h640v-128h-640zM1024 1792v128h640v-128h-640z" />
<glyph unicode="Z" d="M0 0v128h1280v-128h-1280zM0 256v128h1280v-128h-1280zM0 512v128h384v-128h-384zM0 1536v128h1280v-128h-1280zM0 1792v128h1280v-128h-1280zM256 768v128h512v-128h-512zM512 1024v128h512v-128h-512zM896 1280v128h384v-128h-384z" />
<glyph unicode="a" horiz-adv-x="2048" d="M0 0v128h640v-128h-640zM128 256v128h384v-128h-384zM128 512v128h1408v-128h-1408zM256 768v128h1152v-128h-1152zM256 1024v128h384v-128h-384zM256 1792v128h1152v-128h-1152zM384 1280v128h384v-128h-384zM384 1536v128h896v-128h-896zM896 1280v128h384v-128h-384z M1024 0v128h640v-128h-640zM1024 1024v128h384v-128h-384zM1152 256v128h384v-128h-384z" />
<glyph unicode="b" d="M0 0v128h1152v-128h-1152zM0 256v128h1280v-128h-1280zM0 1536v128h1280v-128h-1280zM0 1792v128h1152v-128h-1152zM128 512v128h384v-128h-384zM128 768v128h1024v-128h-1024zM128 1024v128h1024v-128h-1024zM128 1280v128h384v-128h-384zM896 512v128h384v-128h-384z M896 1280v128h384v-128h-384z" />
<glyph unicode="c" d="M0 256v128h1280v-128h-1280zM0 512v128h384v-128h-384zM0 768v128h384v-128h-384zM0 1024v128h384v-128h-384zM0 1280v128h384v-128h-384zM0 1536v128h1280v-128h-1280zM128 0v128h1152v-128h-1152zM128 1792v128h1152v-128h-1152z" />
<glyph unicode="d" d="M0 0v128h1152v-128h-1152zM0 1792v128h1152v-128h-1152zM128 256v128h1152v-128h-1152zM128 512v128h384v-128h-384zM128 768v128h384v-128h-384zM128 1024v128h384v-128h-384zM128 1280v128h384v-128h-384zM128 1536v128h1152v-128h-1152zM896 512v128h384v-128h-384z M896 768v128h384v-128h-384zM896 1024v128h384v-128h-384zM896 1280v128h384v-128h-384z" />
<glyph unicode="e" d="M0 0v128h1280v-128h-1280zM0 256v128h1280v-128h-1280zM0 1536v128h1280v-128h-1280zM0 1792v128h1280v-128h-1280zM128 512v128h384v-128h-384zM128 768v128h1024v-128h-1024zM128 1024v128h1024v-128h-1024zM128 1280v128h384v-128h-384z" />
<glyph unicode="f" d="M0 0v128h640v-128h-640zM0 256v128h640v-128h-640zM0 1536v128h1280v-128h-1280zM0 1792v128h1280v-128h-1280zM128 512v128h384v-128h-384zM128 768v128h1024v-128h-1024zM128 1024v128h1024v-128h-1024zM128 1280v128h384v-128h-384z" />
<glyph unicode="g" d="M0 256v128h1280v-128h-1280zM0 512v128h384v-128h-384zM0 768v128h384v-128h-384zM0 1024v128h384v-128h-384zM0 1280v128h384v-128h-384zM0 1536v128h1280v-128h-1280zM128 0v128h1024v-128h-1024zM128 1792v128h1152v-128h-1152zM768 768v128h512v-128h-512zM896 512 v128h384v-128h-384z" />
<glyph unicode="h" horiz-adv-x="2048" d="M0 0v128h640v-128h-640zM0 256v128h640v-128h-640zM0 1536v128h640v-128h-640zM0 1792v128h640v-128h-640zM128 512v128h384v-128h-384zM128 768v128h1408v-128h-1408zM128 1024v128h1408v-128h-1408zM128 1280v128h384v-128h-384zM1024 0v128h640v-128h-640zM1024 256 v128h640v-128h-640zM1024 1536v128h640v-128h-640zM1024 1792v128h640v-128h-640zM1152 512v128h384v-128h-384zM1152 1280v128h384v-128h-384z" />
<glyph unicode="i" horiz-adv-x="1024" d="M0 0v128h640v-128h-640zM0 256v128h640v-128h-640zM0 1536v128h640v-128h-640zM0 1792v128h640v-128h-640zM128 512v128h384v-128h-384zM128 768v128h384v-128h-384zM128 1024v128h384v-128h-384zM128 1280v128h384v-128h-384z" />
<glyph unicode="j" d="M0 256v128h1152v-128h-1152zM0 512v128h384v-128h-384zM0 768v128h384v-128h-384zM128 0v128h896v-128h-896zM640 1792v128h640v-128h-640zM768 512v128h384v-128h-384zM768 768v128h384v-128h-384zM768 1024v128h384v-128h-384zM768 1280v128h384v-128h-384zM768 1536 v128h384v-128h-384z" />
<glyph unicode="k" horiz-adv-x="2048" d="M0 0v128h640v-128h-640zM0 256v128h640v-128h-640zM0 1536v128h640v-128h-640zM0 1792v128h640v-128h-640zM128 512v128h384v-128h-384zM128 768v128h1152v-128h-1152zM128 1024v128h1152v-128h-1152zM128 1280v128h384v-128h-384zM1024 0v128h640v-128h-640zM1024 512 v128h384v-128h-384zM1024 1280v128h384v-128h-384zM1024 1792v128h640v-128h-640zM1152 256v128h384v-128h-384zM1152 1536v128h384v-128h-384z" />
<glyph unicode="l" d="M0 0v128h1280v-128h-1280zM0 256v128h1280v-128h-1280zM0 1536v128h640v-128h-640zM0 1792v128h640v-128h-640zM128 512v128h384v-128h-384zM128 768v128h384v-128h-384zM128 1024v128h384v-128h-384zM128 1280v128h384v-128h-384z" />
<glyph unicode="m" horiz-adv-x="2560" d="M0 0v128h640v-128h-640zM0 256v128h640v-128h-640zM0 1536v128h768v-128h-768zM0 1792v128h640v-128h-640zM128 512v128h384v-128h-384zM128 768v128h384v-128h-384zM128 1024v128h896v-128h-896zM128 1280v128h768v-128h-768zM640 768v128h896v-128h-896zM768 512v128 h640v-128h-640zM896 256v128h384v-128h-384zM1024 0v128h128v-128h-128zM1152 1024v128h896v-128h-896zM1280 1280v128h768v-128h-768zM1408 1536v128h768v-128h-768zM1536 0v128h640v-128h-640zM1536 1792v128h640v-128h-640zM1664 256v128h384v-128h-384zM1664 512v128 h384v-128h-384zM1664 768v128h384v-128h-384z" />
<glyph unicode="n" horiz-adv-x="2048" d="M0 0v128h640v-128h-640zM0 256v128h640v-128h-640zM0 1536v128h768v-128h-768zM0 1792v128h640v-128h-640zM128 512v128h384v-128h-384zM128 768v128h384v-128h-384zM128 1024v128h896v-128h-896zM128 1280v128h768v-128h-768zM640 768v128h896v-128h-896zM768 512v128 h768v-128h-768zM896 256v128h768v-128h-768zM1024 0v128h640v-128h-640zM1024 1536v128h640v-128h-640zM1024 1792v128h640v-128h-640zM1152 1024v128h384v-128h-384zM1152 1280v128h384v-128h-384z" />
<glyph unicode="o" d="M0 256v128h1280v-128h-1280zM0 512v128h384v-128h-384zM0 768v128h384v-128h-384zM0 1024v128h384v-128h-384zM0 1280v128h384v-128h-384zM0 1536v128h1280v-128h-1280zM128 0v128h1024v-128h-1024zM128 1792v128h1024v-128h-1024zM896 512v128h384v-128h-384zM896 768 v128h384v-128h-384zM896 1024v128h384v-128h-384zM896 1280v128h384v-128h-384z" />
<glyph unicode="p" d="M0 0v128h640v-128h-640zM0 256v128h640v-128h-640zM0 1536v128h1280v-128h-1280zM0 1792v128h1152v-128h-1152zM128 512v128h384v-128h-384zM128 768v128h1024v-128h-1024zM128 1024v128h1152v-128h-1152zM128 1280v128h384v-128h-384zM896 1280v128h384v-128h-384z" />
<glyph unicode="q" d="M0 256v128h1280v-128h-1280zM0 512v128h384v-128h-384zM0 768v128h384v-128h-384zM0 1024v128h384v-128h-384zM0 1280v128h384v-128h-384zM0 1536v128h1280v-128h-1280zM128 0v128h1024v-128h-1024zM128 1792v128h1024v-128h-1024zM512 -128h384v-128h-384v128zM640 -384 h384v-128h-384v128zM896 512v128h384v-128h-384zM896 768v128h384v-128h-384zM896 1024v128h384v-128h-384zM896 1280v128h384v-128h-384z" />
<glyph unicode="r" horiz-adv-x="2048" d="M0 0v128h640v-128h-640zM0 256v128h640v-128h-640zM0 1536v128h1536v-128h-1536zM0 1792v128h1408v-128h-1408zM128 512v128h384v-128h-384zM128 768v128h1280v-128h-1280zM128 1024v128h1280v-128h-1280zM128 1280v128h384v-128h-384zM1024 0v128h640v-128h-640z M1024 256v128h640v-128h-640zM1152 512v128h384v-128h-384zM1152 1280v128h384v-128h-384z" />
<glyph unicode="s" d="M0 0v128h1152v-128h-1152zM0 256v128h1280v-128h-1280zM0 1280v128h384v-128h-384zM0 1536v128h1280v-128h-1280zM128 1792v128h1152v-128h-1152zM256 1024v128h512v-128h-512zM512 768v128h512v-128h-512zM896 512v128h384v-128h-384z" />
<glyph unicode="t" horiz-adv-x="1792" d="M0 1536v128h1408v-128h-1408zM0 1792v128h1408v-128h-1408zM384 0v128h640v-128h-640zM384 256v128h640v-128h-640zM512 512v128h384v-128h-384zM512 768v128h384v-128h-384zM512 1024v128h384v-128h-384zM512 1280v128h384v-128h-384z" />
<glyph unicode="u" horiz-adv-x="2048" d="M0 1536v128h640v-128h-640zM0 1792v128h640v-128h-640zM128 256v128h1408v-128h-1408zM128 512v128h384v-128h-384zM128 768v128h384v-128h-384zM128 1024v128h384v-128h-384zM128 1280v128h384v-128h-384zM256 0v128h1152v-128h-1152zM1024 1536v128h640v-128h-640z M1024 1792v128h640v-128h-640zM1152 512v128h384v-128h-384zM1152 768v128h384v-128h-384zM1152 1024v128h384v-128h-384zM1152 1280v128h384v-128h-384z" />
<glyph unicode="v" horiz-adv-x="2048" d="M0 1792v128h640v-128h-640zM128 1280v128h384v-128h-384zM128 1536v128h384v-128h-384zM256 768v128h384v-128h-384zM256 1024v128h384v-128h-384zM384 256v128h896v-128h-896zM384 512v128h384v-128h-384zM512 0v128h640v-128h-640zM896 512v128h384v-128h-384z M1024 768v128h384v-128h-384zM1024 1024v128h384v-128h-384zM1024 1792v128h640v-128h-640zM1152 1280v128h384v-128h-384zM1152 1536v128h384v-128h-384z" />
<glyph unicode="w" horiz-adv-x="2816" d="M0 1792v128h640v-128h-640zM128 1280v128h384v-128h-384zM128 1536v128h384v-128h-384zM256 768v128h384v-128h-384zM256 1024v128h384v-128h-384zM384 256v128h1664v-128h-1664zM384 512v128h384v-128h-384zM512 0v128h640v-128h-640zM896 512v128h640v-128h-640z M1024 768v128h384v-128h-384zM1024 1024v128h384v-128h-384zM1280 0v128h640v-128h-640zM1664 512v128h384v-128h-384zM1792 768v128h384v-128h-384zM1792 1024v128h384v-128h-384zM1792 1792v128h640v-128h-640zM1920 1280v128h384v-128h-384zM1920 1536v128h384v-128h-384 z" />
<glyph unicode="x" horiz-adv-x="2048" d="M0 0v128h640v-128h-640zM0 256v128h640v-128h-640zM0 1536v128h640v-128h-640zM0 1792v128h640v-128h-640zM128 512v128h384v-128h-384zM128 1280v128h384v-128h-384zM256 768v128h1152v-128h-1152zM256 1024v128h1152v-128h-1152zM1024 0v128h640v-128h-640zM1024 256 v128h640v-128h-640zM1024 1536v128h640v-128h-640zM1024 1792v128h640v-128h-640zM1152 512v128h384v-128h-384zM1152 1280v128h384v-128h-384z" />
<glyph unicode="y" horiz-adv-x="2048" d="M0 1536v128h640v-128h-640zM0 1792v128h640v-128h-640zM256 1280v128h384v-128h-384zM384 1024v128h896v-128h-896zM512 0v128h640v-128h-640zM512 256v128h640v-128h-640zM512 768v128h640v-128h-640zM640 512v128h384v-128h-384zM1024 1280v128h384v-128h-384z M1024 1536v128h640v-128h-640zM1024 1792v128h640v-128h-640z" />
<glyph unicode="z" d="M0 0v128h1280v-128h-1280zM0 256v128h1280v-128h-1280zM0 512v128h384v-128h-384zM0 1536v128h1280v-128h-1280zM0 1792v128h1280v-128h-1280zM256 768v128h512v-128h-512zM512 1024v128h512v-128h-512zM896 1280v128h384v-128h-384z" />
<glyph unicode="&#x2000;" horiz-adv-x="960" />
<glyph unicode="&#x2001;" horiz-adv-x="1920" />
<glyph unicode="&#x2002;" horiz-adv-x="960" />
<glyph unicode="&#x2003;" horiz-adv-x="1920" />
<glyph unicode="&#x2004;" horiz-adv-x="640" />
<glyph unicode="&#x2005;" horiz-adv-x="480" />
<glyph unicode="&#x2006;" horiz-adv-x="320" />
<glyph unicode="&#x2007;" horiz-adv-x="320" />
<glyph unicode="&#x2008;" horiz-adv-x="240" />
<glyph unicode="&#x2009;" horiz-adv-x="384" />
<glyph unicode="&#x200a;" horiz-adv-x="106" />
<glyph unicode="&#x202f;" horiz-adv-x="384" />
<glyph unicode="&#x205f;" horiz-adv-x="480" />
<glyph unicode="&#x25fc;" horiz-adv-x="1920" d="M0 0v1920h1920v-1920h-1920z" />
</font>
</defs>
</svg>
